<?xml version="1.0" standalone="no"?>
<!DOCTYPE svg PUBLIC "-//W3C//DTD SVG 20010904//EN"
 "http://www.w3.org/TR/2001/REC-SVG-20010904/DTD/svg10.dtd">
<svg version="1.0" xmlns="http://www.w3.org/2000/svg"
 width="512.000000pt" height="512.000000pt" viewBox="0 0 512.000000 512.000000"
 preserveAspectRatio="xMidYMid meet">
<metadata>
Created by potrace 1.14, written by Peter Selinger 2001-2017
</metadata>
<g transform="translate(0.000000,512.000000) scale(0.100000,-0.100000)"
fill="#000000" stroke="none">
<path d="M2590 4760 c-30 -4 -77 -10 -105 -14 -27 -3 -57 -8 -65 -10 -8 -3
-33 -7 -55 -11 -68 -10 -265 -65 -365 -102 -370 -138 -679 -378 -913 -709
l-56 -81 -38 6 c-154 27 -307 -102 -317 -266 -7 -112 54 -216 159 -271 72 -38
178 -38 251 0 155 81 207 283 107 416 -31 41 -29 45 55 159 264 355 666 604
1117 692 205 39 256 44 455 45 219 1 343 -15 570 -70 100 -24 299 -100 425
-162 279 -138 476 -288 697 -531 168 -183 344 -483 427 -726 37 -107 65 -145
106 -145 32 0 75 41 75 71 0 39 -70 222 -145 375 -188 387 -467 703 -835 947
-271 179 -690 339 -980 372 -30 4 -66 9 -80 12 -41 8 -431 10 -490 3z m-1569
-1085 c74 -39 93 -153 35 -211 -37 -36 -94 -47 -144 -28 -58 23 -86 66 -84
128 4 96 107 155 193 111z"/>
<path d="M765 4635 c-17 -16 -25 -35 -25 -60 0 -33 -2 -35 -35 -35 -25 0 -44
-8 -60 -25 -51 -50 -16 -125 58 -125 36 0 37 -1 37 -38 0 -48 32 -82 78 -82
40 0 65 27 72 78 5 34 8 37 42 42 52 7 78 32 78 74 0 43 -38 76 -86 76 -33 0
-34 1 -34 38 0 74 -75 108 -125 57z"/>
<path d="M3885 4170 c-32 -12 -47 -36 -47 -75 0 -29 -4 -35 -21 -36 -65 -2
-98 -28 -99 -78 -2 -49 31 -74 107 -80 6 -1 11 -18 12 -38 4 -70 70 -101 122
-57 25 21 31 34 31 64 0 34 3 38 20 35 86 -17 135 101 59 141 -16 8 -31 14
-34 14 -40 -1 -45 1 -45 25 0 36 -19 71 -47 84 -27 13 -31 13 -58 1z"/>
<path d="M2600 4052 c-37 -3 -192 -28 -225 -36 -11 -2 -33 -7 -50 -11 -71 -17
-188 -61 -290 -111 -253 -123 -464 -338 -586 -598 -36 -78 -82 -210 -94 -276
-18 -90 -26 -179 -24 -275 6 -563 353 -1001 869 -1099 86 -17 269 -19 350 -5
373 67 641 305 726 647 20 82 23 116 20 217 -4 133 -6 148 -42 254 -101 300
-376 490 -689 476 -111 -5 -243 -44 -277 -82 -29 -32 -27 -74 4 -103 28 -26
52 -25 145 6 116 39 231 37 349 -7 152 -57 261 -169 322 -330 27 -74 33 -108
37 -214 4 -119 -16 -208 -72 -325 -39 -81 -58 -108 -132 -180 -92 -91 -175
-140 -300 -180 -90 -28 -148 -35 -286 -34 -213 3 -378 68 -568 226 -49 40
-133 150 -176 229 -56 103 -87 194 -116 334 -18 88 -14 302 9 410 71 342 312
645 627 788 474 216 996 164 1429 -142 127 -90 309 -289 372 -407 l22 -42 -33
-32 c-95 -95 -111 -239 -39 -352 100 -159 312 -180 443 -43 173 180 50 473
-202 479 -15 0 -31 17 -57 62 -114 199 -327 413 -531 534 -249 147 -496 218
-774 223 -69 2 -142 1 -161 -1z m1617 -1015 c31 -35 37 -52 35 -105 -2 -35
-39 -88 -70 -100 -53 -20 -61 -21 -94 -11 -105 28 -130 165 -44 235 27 21 39
24 85 21 47 -3 59 -9 88 -40z"/>
<path d="M2479 3782 c-43 -21 -60 -77 -38 -118 43 -81 169 -51 169 41 0 71
-66 109 -131 77z"/>
<path d="M2617 3514 c-1 -1 -36 -4 -77 -7 -199 -16 -395 -102 -531 -232 -117
-112 -211 -277 -244 -426 -18 -85 -25 -221 -14 -289 15 -91 20 -111 43 -175
77 -211 258 -376 474 -430 123 -31 314 -23 388 16 45 23 51 89 13 122 -25 20
-51 21 -134 3 -81 -17 -181 -10 -266 19 -227 77 -367 284 -370 548 -2 111 21
209 73 311 33 65 101 158 139 191 97 82 161 119 268 155 90 30 130 35 276 34
103 0 146 -5 208 -22 426 -121 677 -481 663 -952 -4 -136 -13 -191 -51 -311
-100 -317 -364 -592 -673 -703 -89 -32 -210 -63 -279 -71 -49 -6 -53 -5 -67
22 -33 63 -103 107 -177 112 -77 4 -126 -15 -181 -70 -58 -58 -51 -57 -208 -7
-352 113 -643 357 -818 688 -78 147 -145 371 -168 560 -10 83 -10 310 0 422 8
96 1 123 -39 138 -35 13 -81 -6 -94 -38 -20 -49 -30 -184 -26 -357 2 -93 6
-181 8 -195 2 -14 8 -45 11 -70 98 -650 545 -1154 1168 -1319 101 -27 103 -29
121 -67 55 -116 185 -167 298 -117 46 21 104 78 119 119 7 17 17 24 36 24 46
0 221 39 316 71 106 36 234 101 328 167 138 97 312 298 390 452 12 25 28 56
35 70 32 62 82 246 99 360 7 43 9 277 3 288 -3 4 -7 30 -11 57 -20 174 -119
404 -226 529 -164 192 -377 318 -611 360 -71 13 -205 26 -212 20z m-324 -2243
c33 -13 51 -65 34 -99 -16 -34 -68 -50 -101 -32 -24 12 -43 45 -40 68 1 6 2
16 3 20 0 5 10 18 21 30 22 24 45 27 83 13z"/>
<path d="M2431 2973 c-179 -45 -300 -200 -301 -384 0 -26 9 -76 20 -111 89
-290 454 -369 663 -143 16 16 43 59 60 95 29 60 32 73 32 165 0 88 -3 107 -27
157 -79 170 -273 266 -447 221z m231 -189 c88 -61 121 -189 74 -290 -82 -176
-323 -187 -422 -18 -34 58 -39 159 -10 217 68 139 230 180 358 91z"/>
<path d="M419 2801 c-58 -58 -20 -151 61 -151 51 0 90 41 90 96 0 37 -51 84
-90 84 -22 0 -41 -9 -61 -29z"/>
<path d="M4633 2728 c-33 -16 -53 -64 -42 -102 19 -68 95 -91 146 -44 76 71
-9 192 -104 146z"/>
<path d="M4220 2532 c-43 -15 -48 -37 -49 -195 0 -84 -3 -162 -5 -174 -3 -12
-7 -48 -11 -80 -19 -188 -113 -460 -222 -646 -290 -495 -755 -798 -1398 -912
-116 -20 -449 -28 -585 -13 -755 82 -1422 541 -1771 1221 -57 112 -81 129
-136 103 -49 -23 -52 -62 -13 -144 251 -516 693 -932 1228 -1155 179 -75 381
-134 518 -153 27 -3 51 -7 54 -9 3 -2 34 -6 70 -10 36 -4 79 -9 95 -11 40 -5
360 -5 405 0 49 5 164 23 285 43 129 22 434 131 589 210 639 330 1039 978
1051 1703 2 132 -5 184 -27 206 -15 15 -56 24 -78 16z"/>
<path d="M2806 2214 c-37 -37 -35 -86 3 -125 20 -20 39 -29 61 -29 40 0 90 47
90 85 0 84 -96 127 -154 69z"/>
<path d="M722 1604 c-37 -15 -49 -37 -51 -96 -1 -12 -9 -16 -30 -16 -99 3
-120 -131 -23 -147 56 -10 59 -11 57 -37 -3 -37 22 -76 53 -83 58 -12 93 18
97 85 1 19 7 26 25 28 90 11 124 75 72 135 -10 11 -30 17 -57 17 -39 0 -41 2
-39 28 2 41 -12 69 -43 86 -24 12 -33 12 -61 0z"/>
<path d="M3139 1132 c-40 -20 -60 -64 -48 -107 20 -74 129 -83 165 -13 39 76
-41 158 -117 120z"/>
<path d="M4200 840 c-20 -20 -22 -26 -24 -70 -1 -22 -7 -26 -44 -31 -23 -3
-49 -12 -57 -20 -21 -20 -25 -60 -9 -90 15 -30 33 -39 75 -39 16 0 29 -3 30
-7 1 -5 2 -19 3 -33 6 -60 46 -90 102 -76 23 6 57 59 53 83 -4 25 4 33 32 33
44 0 66 15 79 54 18 57 -14 96 -79 96 -18 0 -31 5 -32 13 -2 49 -11 74 -30 90
-28 23 -74 22 -99 -3z"/>
</g>
</svg>
